<?xml version="1.0" encoding="UTF-8" standalone="no"?>
<svg
   xmlns:dc="http://purl.org/dc/elements/1.1/"
   xmlns:cc="http://creativecommons.org/ns#"
   xmlns:rdf="http://www.w3.org/1999/02/22-rdf-syntax-ns#"
   xmlns:svg="http://www.w3.org/2000/svg"
   xmlns="http://www.w3.org/2000/svg"
   xmlns:sodipodi="http://sodipodi.sourceforge.net/DTD/sodipodi-0.dtd"
   xmlns:inkscape="http://www.inkscape.org/namespaces/inkscape"
   inkscape:export-ydpi="318.13593"
   inkscape:export-xdpi="318.13593"
   inkscape:export-filename="D:\Git\PreMiD-Presences-Personal\# Assets\ManiaExchange\tm.png"
   inkscape:version="1.0 (4035a4fb49, 2020-05-01)"
   sodipodi:docname="Logo_Trackmania centered.svg"
   xml:space="preserve"
   enable-background="new 0 0 309 75"
   viewBox="0 0 309 309"
   height="309"
   width="309"
   y="0px"
   x="0px"
   id="Ebene_1"
   version="1.1"><metadata
   id="metadata23"><rdf:RDF><cc:Work
       rdf:about=""><dc:format>image/svg+xml</dc:format><dc:type
         rdf:resource="http://purl.org/dc/dcmitype/StillImage" /><dc:title></dc:title></cc:Work></rdf:RDF></metadata><defs
   id="defs21" /><sodipodi:namedview
   inkscape:current-layer="Ebene_1"
   inkscape:window-maximized="1"
   inkscape:window-y="-8"
   inkscape:window-x="-8"
   inkscape:cy="65.128635"
   inkscape:cx="231.08075"
   inkscape:zoom="1.697411"
   showgrid="false"
   id="namedview19"
   inkscape:window-height="705"
   inkscape:window-width="1366"
   inkscape:pageshadow="2"
   inkscape:pageopacity="0"
   guidetolerance="10"
   gridtolerance="10"
   objecttolerance="10"
   borderopacity="1"
   bordercolor="#666666"
   pagecolor="#ffffff" />







<g
   transform="translate(1,113.492)"
   id="g33"><path
     fill="#373737"
     d="m 7,12 c 48,0 96,0 144,0 -0.083,0.25 0,12 0,12 -43.473,0.258 -94.396,0.062 -144,0 0,-4 0,-8 0,-12 z"
     id="path2"
     style="fill:#000000" /><path
     fill="#373737"
     d="m 300,12 c 0,19 -0.133,39.011 -0.133,58.011 L 287.001,69.946 V 24.076 C 249.992,24.125 156,24 156,24 L 155.936,11.942 C 203.602,11.942 252.334,12 300,12 Z"
     id="path4"
     style="fill:#000000" /><path
     fill="#373737"
     d="m 7,27 c 23.333,0 46.667,0 70,0 v 43 c -4,0 -8,0 -12,0 V 41 C 45.667,41 26.333,41 7,41 7,36.333 7,31.667 7,27 Z"
     id="path6"
     style="fill:#000000" /><path
     fill="#373737"
     d="M 81,70 V 27 c 23.333,0 46.667,0 70,0 l -0.167,13.917 C 131.833,40.917 112,41 93,41 c 0,9.667 0,19.333 0,29"
     id="path8"
     style="fill:#000000" /><path
     fill="#373737"
     d="M 89,70"
     id="path10"
     style="fill:#000000" /><path
     fill="#373737"
     d="M 156.066,70.074 156,27 l 14.001,-0.064 0.065,43.136"
     id="path12"
     style="fill:#000000" /><path
     fill="#373737"
     d="m 173,70 c -0.234,-7.752 -0.033,-32.319 0,-43 18,0 36,0 54,0 0,14.333 0,28.667 0,43 h -4 -8 c -0.333,0 -0.667,0 -1,0 0,-9.667 0,-19.333 0,-29 L 184.867,40.945 185,70"
     id="path14"
     style="fill:#000000" /><path
     fill="#373737"
     d="M 270.936,70.012 271,41 h -27 l 0.001,28.943 C 243.668,69.943 241.333,70 241,70 h -10 c -0.333,0 -0.667,0 -1,0 0,-14.333 0,-28.667 0,-43 18,0 36,0 54,0 0,14.333 0,28.667 0,43"
     id="path16"
     style="fill:#000000" /></g>
</svg>
