<?xml version="1.0" encoding="UTF-8" standalone="no"?>
<!-- Created with Inkscape (http://www.inkscape.org/) -->

<svg
   xmlns:dc="http://purl.org/dc/elements/1.1/"
   xmlns:cc="http://creativecommons.org/ns#"
   xmlns:rdf="http://www.w3.org/1999/02/22-rdf-syntax-ns#"
   xmlns:svg="http://www.w3.org/2000/svg"
   xmlns="http://www.w3.org/2000/svg"
   xmlns:sodipodi="http://sodipodi.sourceforge.net/DTD/sodipodi-0.dtd"
   xmlns:inkscape="http://www.inkscape.org/namespaces/inkscape"
   width="1024"
   height="1024"
   viewBox="0 0 270.93333 270.93334"
   version="1.1"
   id="svg8"
   inkscape:export-filename="D:\Git\PreMiD-Presences-Personal\assets\GeoGuessr\geoguessr-lg.png"
   inkscape:export-xdpi="96.000008"
   inkscape:export-ydpi="96.000008"
   inkscape:version="0.92.4 (5da689c313, 2019-01-14)"
   sodipodi:docname="geoguessr-logo.svg">
  <defs
     id="defs2" />
  <sodipodi:namedview
     id="base"
     pagecolor="#ffffff"
     bordercolor="#666666"
     borderopacity="1.0"
     inkscape:pageopacity="0.0"
     inkscape:pageshadow="2"
     inkscape:zoom="0.24748737"
     inkscape:cx="413.00665"
     inkscape:cy="227.12737"
     inkscape:document-units="mm"
     inkscape:current-layer="layer1"
     showgrid="false"
     units="px"
     showguides="false"
     inkscape:window-width="1366"
     inkscape:window-height="705"
     inkscape:window-x="-8"
     inkscape:window-y="-8"
     inkscape:window-maximized="1" />
  <metadata
     id="metadata5">
    <rdf:RDF>
      <cc:Work
         rdf:about="">
        <dc:format>image/svg+xml</dc:format>
        <dc:type
           rdf:resource="http://purl.org/dc/dcmitype/StillImage" />
        <dc:title></dc:title>
      </cc:Work>
    </rdf:RDF>
  </metadata>
  <g
     inkscape:label="Layer 1"
     inkscape:groupmode="layer"
     id="layer1"
     transform="translate(0,-26.06665)">
    <g
       id="g59"
       transform="matrix(1.3901677,0,0,1.3901677,333.38526,-45.369948)"
       inkscape:export-xdpi="2169"
       inkscape:export-ydpi="2169">
      <path
         sodipodi:nodetypes="cscsccc"
         id="path22"
         d="m -142.38308,221.91802 -12.309,-12.309 c -42.3122,-42.3122 -45.38945,-68.46883 -45.38945,-76.54662 0.38466,-31.54182 26.15663,-57.313794 57.69845,-57.313794 31.54183,0 57.313801,25.771974 57.698457,57.313794 0.384657,8.07779 -3.07725,34.23442 -45.004797,76.54662 z"
         inkscape:connector-curvature="0"
         style="fill:#cc2f2f;stroke-width:3.84656358" />
      <path
         sodipodi:nodetypes="cscccsssss"
         style="fill:#ffffff;stroke-width:3.84656358"
         inkscape:connector-curvature="0"
         d="m -102.37881,133.44706 c 0,-22.31007 -17.6942,-40.004262 -40.00427,-40.004262 -22.31006,0 -40.00426,18.078852 -40.00426,40.004262 0,0 -1.15396,22.31007 40.00426,63.4683 41.54289,-41.15823 40.00427,-63.4683 40.00427,-63.4683 z m -40.00427,0 c -5.76984,0 -10.38572,-4.61588 -10.38572,-10.38572 0,-5.76985 4.61588,-10.38572 10.38572,-10.38572 5.76985,0 10.38573,4.61587 10.38573,10.38572 0,5.38519 -4.61588,10.38572 -10.38573,10.38572 z"
         id="path24" />
    </g>
  </g>
</svg>
